<svg width="196" height="154" viewBox="0 0 196 154" fill="none" xmlns="http://www.w3.org/2000/svg">
<g id="Group 21">
<g id="Group 12">
<circle id="Ellipse 3" cx="3.5" cy="3.5" r="3.5" fill="#DC7000" fill-opacity="0.35"/>
<circle id="Ellipse 4" cx="24.5" cy="3.5" r="3.5" fill="#DC7000" fill-opacity="0.35"/>
<circle id="Ellipse 5" cx="45.5" cy="3.5" r="3.5" fill="#DC7000" fill-opacity="0.35"/>
<circle id="Ellipse 6" cx="66.5" cy="3.5" r="3.5" fill="#DC7000" fill-opacity="0.35"/>
<circle id="Ellipse 7" cx="87.5" cy="3.5" r="3.5" fill="#DC7000" fill-opacity="0.35"/>
<circle id="Ellipse 8" cx="108.5" cy="3.5" r="3.5" fill="#DC7000" fill-opacity="0.35"/>
<circle id="Ellipse 9" cx="129.5" cy="3.5" r="3.5" fill="#DC7000" fill-opacity="0.35"/>
<circle id="Ellipse 10" cx="150.5" cy="3.5" r="3.5" fill="#DC7000" fill-opacity="0.35"/>
<circle id="Ellipse 11" cx="171.5" cy="3.5" r="3.5" fill="#DC7000" fill-opacity="0.35"/>
<circle id="Ellipse 12" cx="192.5" cy="3.5" r="3.5" fill="#DC7000" fill-opacity="0.35"/>
</g>
<g id="Group 13">
<circle id="Ellipse 3_2" cx="3.5" cy="24.5" r="3.5" fill="#DC7000" fill-opacity="0.35"/>
<circle id="Ellipse 4_2" cx="24.5" cy="24.5" r="3.5" fill="#DC7000" fill-opacity="0.35"/>
<circle id="Ellipse 5_2" cx="45.5" cy="24.5" r="3.5" fill="#DC7000" fill-opacity="0.35"/>
<circle id="Ellipse 6_2" cx="66.5" cy="24.5" r="3.5" fill="#DC7000" fill-opacity="0.35"/>
<circle id="Ellipse 7_2" cx="87.5" cy="24.5" r="3.5" fill="#DC7000" fill-opacity="0.35"/>
<circle id="Ellipse 8_2" cx="108.5" cy="24.5" r="3.5" fill="#DC7000" fill-opacity="0.35"/>
<circle id="Ellipse 9_2" cx="129.5" cy="24.5" r="3.5" fill="#DC7000" fill-opacity="0.35"/>
<circle id="Ellipse 10_2" cx="150.5" cy="24.5" r="3.5" fill="#DC7000" fill-opacity="0.35"/>
<circle id="Ellipse 11_2" cx="171.5" cy="24.5" r="3.5" fill="#DC7000" fill-opacity="0.35"/>
<circle id="Ellipse 12_2" cx="192.5" cy="24.5" r="3.5" fill="#DC7000" fill-opacity="0.35"/>
</g>
<g id="Group 14">
<circle id="Ellipse 3_3" cx="3.5" cy="45.5" r="3.5" fill="#DC7000" fill-opacity="0.35"/>
<circle id="Ellipse 4_3" cx="24.5" cy="45.5" r="3.5" fill="#DC7000" fill-opacity="0.35"/>
<circle id="Ellipse 5_3" cx="45.5" cy="45.5" r="3.5" fill="#DC7000" fill-opacity="0.35"/>
<circle id="Ellipse 6_3" cx="66.5" cy="45.5" r="3.5" fill="#DC7000" fill-opacity="0.35"/>
<circle id="Ellipse 7_3" cx="87.5" cy="45.5" r="3.5" fill="#DC7000" fill-opacity="0.35"/>
<circle id="Ellipse 8_3" cx="108.5" cy="45.5" r="3.5" fill="#DC7000" fill-opacity="0.35"/>
<circle id="Ellipse 9_3" cx="129.5" cy="45.5" r="3.5" fill="#DC7000" fill-opacity="0.35"/>
<circle id="Ellipse 10_3" cx="150.5" cy="45.5" r="3.5" fill="#DC7000" fill-opacity="0.35"/>
<circle id="Ellipse 11_3" cx="171.5" cy="45.5" r="3.5" fill="#DC7000" fill-opacity="0.35"/>
<circle id="Ellipse 12_3" cx="192.5" cy="45.5" r="3.5" fill="#DC7000" fill-opacity="0.35"/>
</g>
<g id="Group 15">
<circle id="Ellipse 3_4" cx="3.5" cy="66.5" r="3.5" fill="#DC7000" fill-opacity="0.35"/>
<circle id="Ellipse 4_4" cx="24.5" cy="66.5" r="3.5" fill="#DC7000" fill-opacity="0.35"/>
<circle id="Ellipse 5_4" cx="45.5" cy="66.5" r="3.5" fill="#DC7000" fill-opacity="0.35"/>
<circle id="Ellipse 6_4" cx="66.5" cy="66.5" r="3.5" fill="#DC7000" fill-opacity="0.35"/>
<circle id="Ellipse 7_4" cx="87.5" cy="66.5" r="3.5" fill="#DC7000" fill-opacity="0.35"/>
<circle id="Ellipse 8_4" cx="108.5" cy="66.5" r="3.5" fill="#DC7000" fill-opacity="0.35"/>
<circle id="Ellipse 9_4" cx="129.5" cy="66.5" r="3.5" fill="#DC7000" fill-opacity="0.35"/>
<circle id="Ellipse 10_4" cx="150.5" cy="66.5" r="3.5" fill="#DC7000" fill-opacity="0.35"/>
<circle id="Ellipse 11_4" cx="171.5" cy="66.5" r="3.5" fill="#DC7000" fill-opacity="0.35"/>
<circle id="Ellipse 12_4" cx="192.5" cy="66.5" r="3.5" fill="#DC7000" fill-opacity="0.35"/>
</g>
<g id="Group 16">
<circle id="Ellipse 3_5" cx="3.5" cy="87.5" r="3.5" fill="#DC7000" fill-opacity="0.35"/>
<circle id="Ellipse 4_5" cx="24.5" cy="87.5" r="3.5" fill="#DC7000" fill-opacity="0.35"/>
<circle id="Ellipse 5_5" cx="45.5" cy="87.5" r="3.5" fill="#DC7000" fill-opacity="0.35"/>
<circle id="Ellipse 6_5" cx="66.5" cy="87.5" r="3.5" fill="#DC7000" fill-opacity="0.35"/>
<circle id="Ellipse 7_5" cx="87.5" cy="87.5" r="3.5" fill="#DC7000" fill-opacity="0.35"/>
<circle id="Ellipse 8_5" cx="108.5" cy="87.5" r="3.5" fill="#DC7000" fill-opacity="0.35"/>
<circle id="Ellipse 9_5" cx="129.5" cy="87.5" r="3.5" fill="#DC7000" fill-opacity="0.35"/>
<circle id="Ellipse 10_5" cx="150.5" cy="87.5" r="3.5" fill="#DC7000" fill-opacity="0.35"/>
<circle id="Ellipse 11_5" cx="171.5" cy="87.5" r="3.5" fill="#DC7000" fill-opacity="0.35"/>
<circle id="Ellipse 12_5" cx="192.5" cy="87.5" r="3.5" fill="#DC7000" fill-opacity="0.35"/>
</g>
<g id="Group 17">
<circle id="Ellipse 3_6" cx="3.5" cy="108.5" r="3.5" fill="#DC7000" fill-opacity="0.35"/>
<circle id="Ellipse 4_6" cx="24.5" cy="108.5" r="3.5" fill="#DC7000" fill-opacity="0.35"/>
<circle id="Ellipse 5_6" cx="45.5" cy="108.5" r="3.5" fill="#DC7000" fill-opacity="0.35"/>
<circle id="Ellipse 6_6" cx="66.5" cy="108.5" r="3.5" fill="#DC7000" fill-opacity="0.35"/>
<circle id="Ellipse 7_6" cx="87.5" cy="108.5" r="3.5" fill="#DC7000" fill-opacity="0.35"/>
<circle id="Ellipse 8_6" cx="108.5" cy="108.5" r="3.5" fill="#DC7000" fill-opacity="0.35"/>
<circle id="Ellipse 9_6" cx="129.5" cy="108.5" r="3.5" fill="#DC7000" fill-opacity="0.35"/>
<circle id="Ellipse 10_6" cx="150.5" cy="108.5" r="3.5" fill="#DC7000" fill-opacity="0.35"/>
<circle id="Ellipse 11_6" cx="171.5" cy="108.5" r="3.5" fill="#DC7000" fill-opacity="0.35"/>
<circle id="Ellipse 12_6" cx="192.5" cy="108.5" r="3.5" fill="#DC7000" fill-opacity="0.35"/>
</g>
<g id="Group 18">
<circle id="Ellipse 3_7" cx="3.5" cy="129.5" r="3.5" fill="#DC7000" fill-opacity="0.35"/>
<circle id="Ellipse 4_7" cx="24.5" cy="129.5" r="3.5" fill="#DC7000" fill-opacity="0.35"/>
<circle id="Ellipse 5_7" cx="45.5" cy="129.5" r="3.5" fill="#DC7000" fill-opacity="0.35"/>
<circle id="Ellipse 6_7" cx="66.5" cy="129.5" r="3.5" fill="#DC7000" fill-opacity="0.35"/>
<circle id="Ellipse 7_7" cx="87.5" cy="129.5" r="3.5" fill="#DC7000" fill-opacity="0.35"/>
<circle id="Ellipse 8_7" cx="108.5" cy="129.5" r="3.5" fill="#DC7000" fill-opacity="0.35"/>
<circle id="Ellipse 9_7" cx="129.5" cy="129.5" r="3.5" fill="#DC7000" fill-opacity="0.35"/>
<circle id="Ellipse 10_7" cx="150.5" cy="129.5" r="3.5" fill="#DC7000" fill-opacity="0.35"/>
<circle id="Ellipse 11_7" cx="171.5" cy="129.5" r="3.5" fill="#DC7000" fill-opacity="0.35"/>
<circle id="Ellipse 12_7" cx="192.5" cy="129.5" r="3.5" fill="#DC7000" fill-opacity="0.35"/>
</g>
<g id="Group 19">
<circle id="Ellipse 3_8" cx="3.5" cy="129.5" r="3.5" fill="#DC7000" fill-opacity="0.35"/>
<circle id="Ellipse 4_8" cx="24.5" cy="129.5" r="3.5" fill="#DC7000" fill-opacity="0.35"/>
<circle id="Ellipse 5_8" cx="45.5" cy="129.5" r="3.5" fill="#DC7000" fill-opacity="0.35"/>
<circle id="Ellipse 6_8" cx="66.5" cy="129.5" r="3.5" fill="#DC7000" fill-opacity="0.35"/>
<circle id="Ellipse 7_8" cx="87.5" cy="129.5" r="3.5" fill="#DC7000" fill-opacity="0.35"/>
<circle id="Ellipse 8_8" cx="108.5" cy="129.5" r="3.5" fill="#DC7000" fill-opacity="0.35"/>
<circle id="Ellipse 9_8" cx="129.5" cy="129.5" r="3.5" fill="#DC7000" fill-opacity="0.35"/>
<circle id="Ellipse 10_8" cx="150.5" cy="129.5" r="3.5" fill="#DC7000" fill-opacity="0.35"/>
<circle id="Ellipse 11_8" cx="171.5" cy="129.5" r="3.5" fill="#DC7000" fill-opacity="0.35"/>
<circle id="Ellipse 12_8" cx="192.5" cy="129.5" r="3.5" fill="#DC7000" fill-opacity="0.35"/>
</g>
<g id="Group 20">
<circle id="Ellipse 3_9" cx="3.5" cy="150.5" r="3.5" fill="#DC7000" fill-opacity="0.35"/>
<circle id="Ellipse 4_9" cx="24.5" cy="150.5" r="3.5" fill="#DC7000" fill-opacity="0.35"/>
<circle id="Ellipse 5_9" cx="45.5" cy="150.5" r="3.5" fill="#DC7000" fill-opacity="0.35"/>
<circle id="Ellipse 6_9" cx="66.5" cy="150.5" r="3.5" fill="#DC7000" fill-opacity="0.35"/>
<circle id="Ellipse 7_9" cx="87.5" cy="150.5" r="3.5" fill="#DC7000" fill-opacity="0.35"/>
<circle id="Ellipse 8_9" cx="108.5" cy="150.5" r="3.5" fill="#DC7000" fill-opacity="0.35"/>
<circle id="Ellipse 9_9" cx="129.5" cy="150.5" r="3.5" fill="#DC7000" fill-opacity="0.35"/>
<circle id="Ellipse 10_9" cx="150.5" cy="150.5" r="3.5" fill="#DC7000" fill-opacity="0.35"/>
<circle id="Ellipse 11_9" cx="171.5" cy="150.5" r="3.5" fill="#DC7000" fill-opacity="0.35"/>
<circle id="Ellipse 12_9" cx="192.5" cy="150.5" r="3.5" fill="#DC7000" fill-opacity="0.35"/>
</g>
</g>
</svg>
