<svg width="1440" height="860" viewBox="0 0 1440 860" fill="none" xmlns="http://www.w3.org/2000/svg">
<rect y="1" width="1440" height="858" fill="#1C140F"/>
<path d="M0 692.583C28.934 668.44 78.6557 633.159 137.925 617.158C205.5 598.915 322.663 585.878 371.172 660.115C395.132 696.784 369.128 738.415 398 770.415C426.691 802.213 474.941 781.777 511.5 798.915C543.5 813.915 552 840.415 567 858.915" stroke="#E4E4E4"/>
<path d="M393 1C421.419 32.5504 495.606 94.1487 565.008 88.1391C651.759 80.6271 711 56 785.377 79.1247C831.677 93.5199 827.257 138.219 869.137 170.771C911.017 203.323 1093.49 124.197 1093.49 124.197C1093.49 124.197 1222.13 66.6047 1234.59 124.197C1247.06 181.789 1195.7 250.398 1219.14 264.421C1237.88 275.638 1374.86 224.357 1441 197.313" stroke="#E17A0E" stroke-opacity="0.24"/>
</svg>
