<svg width="62" height="62" viewBox="0 0 62 62" fill="none" xmlns="http://www.w3.org/2000/svg">
<g filter="url(#filter0_d_17_293)">
<circle cx="31" cy="27" r="17" fill="#1C140F"/>
</g>
<g clip-path="url(#clip0_17_293)">
<path d="M34.481 20H28.519C26.5786 20 25 21.5786 25 23.519V29.4811C25 31.4214 26.5786 33 28.519 33H34.4811C36.4214 33 38 31.4214 38 29.4811V23.519C38 21.5786 36.4214 20 34.481 20V20ZM37.2379 29.4811C37.2379 31.0012 36.0012 32.2379 34.481 32.2379H28.519C26.9988 32.2379 25.7621 31.0012 25.7621 29.4811V23.519C25.7621 21.9988 26.9988 20.7621 28.519 20.7621H34.4811C36.0012 20.7621 37.2379 21.9988 37.2379 23.519V29.4811Z" fill="white"/>
<path d="M31.4999 22.9453C29.5399 22.9453 27.9453 24.5399 27.9453 26.4999C27.9453 28.4599 29.5399 30.0545 31.4999 30.0545C33.4599 30.0545 35.0545 28.4599 35.0545 26.4999C35.0545 24.5399 33.4599 22.9453 31.4999 22.9453V22.9453ZM31.4999 29.2924C29.9602 29.2924 28.7074 28.0397 28.7074 26.4999C28.7074 24.9602 29.9602 23.7074 31.4999 23.7074C33.0397 23.7074 34.2924 24.9602 34.2924 26.4999C34.2924 28.0397 33.0397 29.2924 31.4999 29.2924V29.2924Z" fill="white"/>
<path d="M35.1397 21.6831C34.5605 21.6831 34.0894 22.1543 34.0894 22.7334C34.0894 23.3127 34.5605 23.7839 35.1397 23.7839C35.7189 23.7839 36.1901 23.3127 36.1901 22.7334C36.1901 22.1542 35.7189 21.6831 35.1397 21.6831ZM35.1397 23.0217C34.9808 23.0217 34.8515 22.8923 34.8515 22.7334C34.8515 22.5745 34.9808 22.4452 35.1397 22.4452C35.2987 22.4452 35.428 22.5745 35.428 22.7334C35.428 22.8923 35.2987 23.0217 35.1397 23.0217Z" fill="white"/>
</g>
<defs>
<filter id="filter0_d_17_293" x="0" y="0" width="62" height="62" filterUnits="userSpaceOnUse" color-interpolation-filters="sRGB">
<feFlood flood-opacity="0" result="BackgroundImageFix"/>
<feColorMatrix in="SourceAlpha" type="matrix" values="0 0 0 0 0 0 0 0 0 0 0 0 0 0 0 0 0 0 127 0" result="hardAlpha"/>
<feOffset dy="4"/>
<feGaussianBlur stdDeviation="7"/>
<feColorMatrix type="matrix" values="0 0 0 0 0 0 0 0 0 0 0 0 0 0 0 0 0 0 0.15 0"/>
<feBlend mode="normal" in2="BackgroundImageFix" result="effect1_dropShadow_17_293"/>
<feBlend mode="normal" in="SourceGraphic" in2="effect1_dropShadow_17_293" result="shape"/>
</filter>
<clipPath id="clip0_17_293">
<rect width="13" height="13" fill="white" transform="translate(25 20)"/>
</clipPath>
</defs>
</svg>
