<svg width="62" height="62" viewBox="0 0 62 62" fill="none" xmlns="http://www.w3.org/2000/svg">
<g filter="url(#filter0_d_9_8)">
<circle cx="31.0007" cy="27" r="17" fill="white"/>
</g>
<g clip-path="url(#clip0_9_8)">
<path d="M34.4817 20H28.5197C26.5793 20 25.0007 21.5786 25.0007 23.519V29.4811C25.0007 31.4214 26.5793 33 28.5197 33H34.4818C36.4221 33 38.0007 31.4214 38.0007 29.4811V23.519C38.0007 21.5786 36.4221 20 34.4817 20V20ZM37.2386 29.4811C37.2386 31.0012 36.0019 32.2379 34.4817 32.2379H28.5197C26.9995 32.2379 25.7628 31.0012 25.7628 29.4811V23.519C25.7628 21.9988 26.9995 20.7621 28.5197 20.7621H34.4818C36.0019 20.7621 37.2386 21.9988 37.2386 23.519V29.4811Z" fill="black"/>
<path d="M31.5007 22.9453C29.5407 22.9453 27.9461 24.5399 27.9461 26.4999C27.9461 28.4599 29.5407 30.0545 31.5007 30.0545C33.4608 30.0545 35.0553 28.4599 35.0553 26.4999C35.0553 24.5399 33.4608 22.9453 31.5007 22.9453ZM31.5007 29.2924C29.961 29.2924 28.7083 28.0397 28.7083 26.4999C28.7083 24.9602 29.961 23.7074 31.5007 23.7074C33.0405 23.7074 34.2932 24.9602 34.2932 26.4999C34.2932 28.0397 33.0405 29.2924 31.5007 29.2924Z" fill="black"/>
<path d="M35.1403 21.6831C34.5611 21.6831 34.09 22.1543 34.09 22.7334C34.09 23.3127 34.5611 23.7839 35.1403 23.7839C35.7195 23.7839 36.1907 23.3127 36.1907 22.7334C36.1907 22.1542 35.7195 21.6831 35.1403 21.6831ZM35.1403 23.0217C34.9814 23.0217 34.8521 22.8923 34.8521 22.7334C34.8521 22.5745 34.9814 22.4452 35.1403 22.4452C35.2993 22.4452 35.4286 22.5745 35.4286 22.7334C35.4286 22.8923 35.2993 23.0217 35.1403 23.0217Z" fill="black"/>
</g>
<defs>
<filter id="filter0_d_9_8" x="0.000732422" y="0" width="62" height="62" filterUnits="userSpaceOnUse" color-interpolation-filters="sRGB">
<feFlood flood-opacity="0" result="BackgroundImageFix"/>
<feColorMatrix in="SourceAlpha" type="matrix" values="0 0 0 0 0 0 0 0 0 0 0 0 0 0 0 0 0 0 127 0" result="hardAlpha"/>
<feOffset dy="4"/>
<feGaussianBlur stdDeviation="7"/>
<feColorMatrix type="matrix" values="0 0 0 0 0 0 0 0 0 0 0 0 0 0 0 0 0 0 0.15 0"/>
<feBlend mode="normal" in2="BackgroundImageFix" result="effect1_dropShadow_9_8"/>
<feBlend mode="normal" in="SourceGraphic" in2="effect1_dropShadow_9_8" result="shape"/>
</filter>
<clipPath id="clip0_9_8">
<rect width="13" height="13" fill="white" transform="translate(25.0007 20)"/>
</clipPath>
</defs>
</svg>
