<svg width="56" height="56" viewBox="0 0 56 56" fill="none" xmlns="http://www.w3.org/2000/svg">
<rect x="0.5" y="0.5" width="55" height="55" rx="27.5" fill="#FFECEC"/>
<path d="M35 25C35 24.0807 34.8189 23.1705 34.4672 22.3212C34.1154 21.4719 33.5998 20.7003 32.9497 20.0503C32.2997 19.4002 31.5281 18.8846 30.6788 18.5328C29.8295 18.1811 28.9193 18 28 18C27.0807 18 26.1705 18.1811 25.3212 18.5328C24.4719 18.8846 23.7003 19.4002 23.0503 20.0503C22.4002 20.7003 21.8846 21.4719 21.5328 22.3212C21.1811 23.1705 21 24.0807 21 25C21 26.387 21.41 27.677 22.105 28.765H22.097C24.457 32.46 28 38 28 38L33.903 28.765H33.896C34.6164 27.6414 34.9995 26.3347 35 25V25ZM28 28C27.2044 28 26.4413 27.6839 25.8787 27.1213C25.3161 26.5587 25 25.7956 25 25C25 24.2044 25.3161 23.4413 25.8787 22.8787C26.4413 22.3161 27.2044 22 28 22C28.7956 22 29.5587 22.3161 30.1213 22.8787C30.6839 23.4413 31 24.2044 31 25C31 25.7956 30.6839 26.5587 30.1213 27.1213C29.5587 27.6839 28.7956 28 28 28Z" fill="#DC7000"/>
</svg>
