<svg width="65" height="65" viewBox="0 0 65 65" fill="none" xmlns="http://www.w3.org/2000/svg">
<circle cx="32.5" cy="32.5" r="32.5" fill="white"/>
<g clip-path="url(#clip0_7_3)">
<path d="M34.5671 40.9055C32.8811 41.4681 31.0213 41.468 29.3305 40.9052C28.8568 40.7475 28.3452 41.0037 28.1876 41.4773C28.03 41.9509 28.2861 42.4626 28.7598 42.6202C29.7894 42.9629 30.8703 43.1342 31.951 43.1342C33.0316 43.1342 34.112 42.9627 35.1392 42.62C35.6127 42.462 35.8684 41.9501 35.7104 41.4766C35.5525 41.0033 35.0406 40.7476 34.5671 40.9055Z" fill="#DC7000"/>
<path d="M42.4768 23.5314C42.0922 20.7726 39.7232 18.5951 36.7892 18.5951H35.7569V18.5308C35.7569 18.0317 35.3522 17.6271 34.8531 17.6271H29.0451C28.546 17.6271 28.1414 18.0317 28.1414 18.5308V18.5951H27.1092C24.1997 18.5951 21.8275 20.7422 21.4241 23.5308C19.73 23.9163 18.4615 25.4337 18.4615 27.2428V34.9868C18.4615 37.4634 20.4788 38.4728 21.3951 38.6906C21.8089 44.2659 26.4904 48.4746 31.9491 48.4746C37.5159 48.4746 42.0925 44.1544 42.5028 38.6908C44.878 38.1269 45.4368 35.9719 45.4368 34.9869V27.2428C45.4369 25.4346 44.1696 23.9179 42.4768 23.5314ZM35.7569 20.4025H36.7891C39.3462 20.4025 40.4026 22.4932 40.6222 23.4351H35.7569V20.4025ZM29.9489 19.4346H33.9494V23.4351H29.9489V19.4346ZM27.1092 20.4025H28.1414V23.4351H23.2799C23.866 20.9796 26.0905 20.4025 27.1092 20.4025ZM31.9491 46.6671C27.4886 46.6671 23.6758 43.288 23.2188 38.7945H27.6754C28.7844 38.7945 29.8695 38.3451 30.6525 37.5616C30.6571 37.557 30.6617 37.5523 30.6663 37.5475C31.0063 37.2149 31.4727 37.0246 31.9491 37.0246C32.4257 37.0246 32.8922 37.215 33.2321 37.5476C33.2366 37.5523 33.2412 37.557 33.2459 37.5616C34.0288 38.3451 35.1139 38.7945 36.223 38.7945H40.6792C40.2253 43.2109 36.4833 46.6671 31.9491 46.6671ZM43.6294 34.9869C43.6294 36.1053 42.7178 36.9871 41.6292 36.9871H36.223C35.5969 36.9871 34.9844 36.7364 34.5391 36.2986C34.5342 36.2934 34.5293 36.2884 34.5243 36.2833C33.8467 35.6058 32.9082 35.2171 31.9492 35.2171C30.9903 35.2171 30.0517 35.6058 29.3742 36.2833C29.3692 36.2883 29.3642 36.2934 29.3593 36.2985C28.914 36.7364 28.3015 36.9871 27.6754 36.9871H22.2691C21.1839 36.9871 20.2689 36.1091 20.2689 34.9869V27.2428C20.2689 26.1399 21.1662 25.2426 22.2691 25.2426H41.6291C42.7321 25.2426 43.6294 26.14 43.6294 27.2428V34.9869H43.6294Z" fill="#DC7000"/>
</g>
<defs>
<clipPath id="clip0_7_3">
<rect width="30.8475" height="30.8475" fill="white" transform="translate(16.5254 17.6271)"/>
</clipPath>
</defs>
</svg>
