<svg width="65" height="65" viewBox="0 0 65 65" fill="none" xmlns="http://www.w3.org/2000/svg">
<circle cx="32.5" cy="32.5" r="32.5" fill="white"/>
<g clip-path="url(#clip0_7_5)">
<path d="M47.3523 42.4496L46.6907 39.9805C46.6046 39.6591 46.2741 39.4681 45.9528 39.5545C45.6313 39.6407 45.4406 39.971 45.5267 40.2924L45.8164 41.3733L41.5886 38.9617V28.9385C41.5886 28.7228 41.4733 28.5236 41.2864 28.4161L32.5507 23.3938V18.6211L33.3297 19.4001C33.5651 19.6353 33.9465 19.6353 34.1819 19.4001C34.4172 19.1648 34.4172 18.7833 34.1819 18.5479L32.3743 16.7403C32.1387 16.5039 31.7531 16.5086 31.5222 16.7403L29.7146 18.5479C29.4793 18.7832 29.4793 19.1647 29.7146 19.4001C29.9499 19.6353 30.3314 19.6353 30.5668 19.4001L31.3458 18.6211V23.3948L22.6688 28.417C22.4827 28.5247 22.3681 28.7235 22.3681 28.9385V38.8643L18.0808 41.3005L18.3709 40.2176C18.457 39.8962 18.2663 39.5658 17.9448 39.4797C17.6233 39.3934 17.293 39.5843 17.2069 39.9058L16.5453 42.3755C16.4616 42.6882 16.6489 43.0362 16.9895 43.1182L19.4406 43.775C19.7646 43.8618 20.0931 43.6677 20.1785 43.3489C20.2647 43.0276 20.074 42.6972 19.7525 42.611L18.7069 42.3309L22.962 39.9129L31.6805 45.0468C31.8671 45.1567 32.0989 45.1582 32.2872 45.0496L34.4974 43.7755C34.7857 43.6093 34.8846 43.2408 34.7184 42.9526C34.5523 42.6644 34.1838 42.5654 33.8955 42.7315L31.9895 43.8304L24.1707 39.2262L31.9103 34.8281L39.7991 39.3282L38.5922 40.024C38.3039 40.1902 38.2049 40.5586 38.3711 40.8468C38.5373 41.1352 38.9059 41.2342 39.194 41.0679L41.0118 40.0199L45.1923 42.4047L44.1453 42.6852C43.8239 42.7713 43.6331 43.1017 43.7193 43.4231C43.805 43.7429 44.1342 43.9358 44.4572 43.8492L46.872 43.2022C47.2168 43.1413 47.4447 42.7947 47.3523 42.4496ZM40.3835 38.2742L32.5507 33.8061V24.7838L40.3835 29.2871V38.2742ZM23.5731 29.2859L31.3456 24.7873V33.7628L23.5731 38.1795V29.2859Z" fill="#DC7000"/>
<path d="M36.5274 42.4724C36.8602 42.4724 37.1299 42.2026 37.1299 41.8699C37.1299 41.5371 36.8602 41.2673 36.5274 41.2673C36.1946 41.2673 35.9249 41.5371 35.9249 41.8699C35.9249 42.2026 36.1946 42.4724 36.5274 42.4724Z" fill="#DC7000"/>
</g>
<defs>
<clipPath id="clip0_7_5">
<rect width="30.8475" height="30.8475" fill="white" transform="translate(16.5255 15.4237)"/>
</clipPath>
</defs>
</svg>
