<svg width="65" height="65" viewBox="0 0 65 65" fill="none" xmlns="http://www.w3.org/2000/svg">
<circle cx="32.5" cy="32.5" r="32.5" fill="white"/>
<g clip-path="url(#clip0_5_14)">
<path d="M19.1879 29.3051C19.3294 29.3059 19.4654 29.2503 19.5659 29.1507L21.6959 27.0207C21.9047 26.8119 21.9047 26.4734 21.6959 26.2646C21.4871 26.0558 21.1486 26.0558 20.9398 26.2646L18.8098 28.3945C18.709 28.4945 18.6523 28.6306 18.6523 28.7726C18.6523 28.9146 18.709 29.0507 18.8098 29.1507C18.9103 29.2503 19.0463 29.3059 19.1879 29.3051Z" fill="#DC7000"/>
<path d="M19.1879 32.5C19.3294 32.5008 19.4654 32.4453 19.5659 32.3456L24.8908 27.0207C25.0996 26.8119 25.0996 26.4734 24.8908 26.2646C24.682 26.0558 24.3435 26.0558 24.1347 26.2646L18.8098 31.5895C18.709 31.6894 18.6523 31.8255 18.6523 31.9675C18.6523 32.1095 18.709 32.2456 18.8098 32.3456C18.9103 32.4453 19.0463 32.5008 19.1879 32.5Z" fill="#DC7000"/>
<path d="M46.8771 16.5254H33.0325C32.1502 16.5254 31.435 17.2406 31.435 18.1229V23.9802H19.1879C17.7174 23.9802 16.5254 25.1722 16.5254 26.6427V40.4873C16.5254 41.9577 17.7174 43.1497 19.1879 43.1497H25.0452V45.2797H23.4477C22.5655 45.2797 21.8503 45.9949 21.8503 46.8771C21.8503 47.7594 22.5655 48.4746 23.4477 48.4746H46.8771C47.7594 48.4746 48.4746 47.7594 48.4746 46.8771V18.1229C48.4746 17.2406 47.7594 16.5254 46.8771 16.5254ZM19.1879 25.0452H38.3573C39.2396 25.0452 39.9548 25.7604 39.9548 26.6427V39.4223H17.5904V26.6427C17.5904 25.7604 18.3056 25.0452 19.1879 25.0452ZM17.5904 40.4873H39.9548C39.9548 41.3695 39.2396 42.0847 38.3573 42.0847H19.1879C18.3056 42.0847 17.5904 41.3695 17.5904 40.4873ZM26.1102 43.1497H31.435V45.2797H26.1102V43.1497ZM33.0325 47.4096H23.4477C23.1537 47.4096 22.9153 47.1712 22.9153 46.8771C22.9153 46.583 23.1537 46.3446 23.4477 46.3446H34.0975C34.3915 46.3446 34.6299 46.583 34.6299 46.8771C34.6299 47.1712 34.3915 47.4096 34.0975 47.4096H33.0325ZM47.4096 46.8771C47.4096 47.1712 47.1712 47.4096 46.8771 47.4096H35.5991C35.7717 46.9214 35.6969 46.3799 35.3986 45.9566C35.1002 45.5334 34.6153 45.2811 34.0975 45.2797H32.5V43.1497H38.3573C39.8278 43.1497 41.0198 41.9577 41.0198 40.4873V26.6427C41.0198 25.1722 39.8278 23.9802 38.3573 23.9802H32.5V18.1229C32.5 17.8288 32.7384 17.5904 33.0325 17.5904H46.8771C47.1712 17.5904 47.4096 17.8288 47.4096 18.1229V46.8771Z" fill="#DC7000"/>
<path d="M45.2797 19.1879H34.63C34.0418 19.1879 33.565 19.6647 33.565 20.2529V21.3178C33.565 21.906 34.0418 22.3828 34.63 22.3828H45.2797C45.8678 22.3828 46.3447 21.906 46.3447 21.3178V20.2529C46.3447 19.6647 45.8678 19.1879 45.2797 19.1879ZM34.63 21.3178V20.2529H45.2797V21.3178H34.63Z" fill="#DC7000"/>
<path d="M44.2147 27.1751C45.0969 27.1751 45.8121 26.4599 45.8121 25.5777C45.8121 24.6954 45.0969 23.9802 44.2147 23.9802C43.3324 23.9802 42.6172 24.6954 42.6172 25.5777C42.6172 26.4599 43.3324 27.1751 44.2147 27.1751ZM44.2147 25.0452C44.5088 25.0452 44.7472 25.2836 44.7472 25.5777C44.7472 25.8717 44.5088 26.1101 44.2147 26.1101C43.9206 26.1101 43.6822 25.8717 43.6822 25.5777C43.6822 25.2836 43.9206 25.0452 44.2147 25.0452Z" fill="#DC7000"/>
<path d="M45.8121 29.8376C45.8121 28.9553 45.0969 28.2401 44.2147 28.2401C43.3324 28.2401 42.6172 28.9553 42.6172 29.8376C42.6172 30.7198 43.3324 31.435 44.2147 31.435C45.0969 31.435 45.8121 30.7198 45.8121 29.8376ZM44.2147 30.3701C43.9206 30.3701 43.6822 30.1317 43.6822 29.8376C43.6822 29.5435 43.9206 29.3051 44.2147 29.3051C44.5088 29.3051 44.7472 29.5435 44.7472 29.8376C44.7472 30.1317 44.5088 30.3701 44.2147 30.3701Z" fill="#DC7000"/>
<path d="M37.2924 44.2147C36.9983 44.2147 36.7599 44.4531 36.7599 44.7472V45.8121C36.7599 46.1062 36.9983 46.3446 37.2924 46.3446C37.5865 46.3446 37.8249 46.1062 37.8249 45.8121V44.7472C37.8249 44.4531 37.5865 44.2147 37.2924 44.2147Z" fill="#DC7000"/>
<path d="M39.4223 44.2147C39.1282 44.2147 38.8898 44.4531 38.8898 44.7472V45.8121C38.8898 46.1062 39.1282 46.3446 39.4223 46.3446C39.7164 46.3446 39.9548 46.1062 39.9548 45.8121V44.7472C39.9548 44.4531 39.7164 44.2147 39.4223 44.2147Z" fill="#DC7000"/>
<path d="M41.5522 44.2147C41.2582 44.2147 41.0198 44.4531 41.0198 44.7472V45.8121C41.0198 46.1062 41.2582 46.3446 41.5522 46.3446C41.8463 46.3446 42.0847 46.1062 42.0847 45.8121V44.7472C42.0847 44.4531 41.8463 44.2147 41.5522 44.2147Z" fill="#DC7000"/>
<path d="M43.6822 44.2147C43.3881 44.2147 43.1497 44.4531 43.1497 44.7472V45.8121C43.1497 46.1062 43.3881 46.3446 43.6822 46.3446C43.9763 46.3446 44.2147 46.1062 44.2147 45.8121V44.7472C44.2147 44.4531 43.9763 44.2147 43.6822 44.2147Z" fill="#DC7000"/>
<path d="M45.8122 44.2147C45.5181 44.2147 45.2797 44.4531 45.2797 44.7472V45.8121C45.2797 46.1062 45.5181 46.3446 45.8122 46.3446C46.1062 46.3446 46.3446 46.1062 46.3446 45.8121V44.7472C46.3446 44.4531 46.1062 44.2147 45.8122 44.2147Z" fill="#DC7000"/>
</g>
<defs>
<clipPath id="clip0_5_14">
<rect width="31.9492" height="31.9492" fill="white" transform="translate(16.5254 16.5254)"/>
</clipPath>
</defs>
</svg>
