<svg width="65" height="65" viewBox="0 0 65 65" fill="none" xmlns="http://www.w3.org/2000/svg">
<circle cx="32.5" cy="32.5" r="32.5" fill="white"/>
<g clip-path="url(#clip0_7_2)">
<path d="M21.4056 27.2411H13.2203V29.565H21.4056C22.0463 29.565 22.5676 30.0863 22.5676 30.727C22.5676 31.3676 22.0463 31.8889 21.4056 31.8889H16.7062C14.7841 31.8889 13.2203 33.4526 13.2203 35.3747V38.8606H15.5442V35.3747C15.5442 34.734 16.0655 34.2128 16.7062 34.2128H21.4056C23.3277 34.2128 24.8914 32.649 24.8914 30.727C24.8914 28.8049 23.3277 27.2411 21.4056 27.2411Z" fill="#DC7000"/>
<path d="M33.6318 27.2411C31.7097 27.2411 30.146 28.8049 30.146 30.727V35.3747C30.146 36.0154 29.6247 36.5367 28.984 36.5367H23.7295V38.8606H28.984C30.9061 38.8606 32.4699 37.2968 32.4699 35.3747V30.727C32.4699 30.0863 32.9911 29.565 33.6318 29.565H38.8864V27.2411H33.6318Z" fill="#DC7000"/>
<path d="M50.5575 34.2126V29.565C50.5575 28.2836 49.515 27.2411 48.2336 27.2411C47.7934 27.2411 47.3647 27.3651 46.9935 27.5995L39.6346 32.2472C38.9559 32.6758 38.5507 33.4106 38.5507 34.2128C38.5507 35.4942 39.5932 36.5367 40.8746 36.5367H48.2336V38.8606H50.5575V36.5367H52.8814V34.2128L50.5575 34.2126ZM48.2336 34.2126L40.8755 34.2121L48.2336 29.565V34.2126Z" fill="#DC7000"/>
</g>
<defs>
<clipPath id="clip0_7_2">
<rect width="39.661" height="39.661" fill="white" transform="translate(13.2203 13.2203)"/>
</clipPath>
</defs>
</svg>
