<svg width="65" height="65" viewBox="0 0 65 65" fill="none" xmlns="http://www.w3.org/2000/svg">
<circle cx="32.5" cy="32.5" r="32.5" fill="white"/>
<g clip-path="url(#clip0_4_13)">
<path d="M38.7441 17.6271H26.2559C25.0521 17.6271 24.072 18.6072 24.072 19.8109V45.1885C24.072 46.3927 25.0521 47.3729 26.2559 47.3729H38.7436C39.9478 47.3729 40.928 46.3927 40.928 45.189V19.8109C40.928 18.6072 39.9478 17.6271 38.7441 17.6271ZM25.0635 21.5932H39.9364V40.4322H25.0635V21.5932ZM26.2559 18.6186H38.7436C39.4015 18.6186 39.9364 19.1536 39.9364 19.8109V20.6017H25.0635V19.8109C25.0635 19.1536 25.5985 18.6186 26.2559 18.6186ZM38.7441 46.3813H26.2559C25.5985 46.3813 25.0635 45.8464 25.0635 45.189V41.4237H39.9364V45.189C39.9364 45.8464 39.4015 46.3813 38.7441 46.3813Z" fill="#DC7000"/>
<path d="M32.5 41.9195C31.4063 41.9195 30.5169 42.8089 30.5169 43.9025C30.5169 44.9962 31.4063 45.8856 32.5 45.8856C33.5936 45.8856 34.483 44.9962 34.483 43.9025C34.483 42.8089 33.5936 41.9195 32.5 41.9195ZM32.5 44.8941C31.9532 44.8941 31.5085 44.4494 31.5085 43.9025C31.5085 43.3557 31.9532 42.911 32.5 42.911C33.0468 42.911 33.4915 43.3557 33.4915 43.9025C33.4915 44.4494 33.0468 44.8941 32.5 44.8941Z" fill="#DC7000"/>
<path d="M30.5169 20.1059H32.5C32.7741 20.1059 32.9958 19.8843 32.9958 19.6101C32.9958 19.336 32.7741 19.1144 32.5 19.1144H30.5169C30.2428 19.1144 30.0212 19.336 30.0212 19.6101C30.0212 19.8843 30.2428 20.1059 30.5169 20.1059Z" fill="#DC7000"/>
<path d="M33.9873 20.1059H34.483C34.7572 20.1059 34.9788 19.8843 34.9788 19.6101C34.9788 19.336 34.7572 19.1144 34.483 19.1144H33.9873C33.7131 19.1144 33.4915 19.336 33.4915 19.6101C33.4915 19.8843 33.7131 20.1059 33.9873 20.1059Z" fill="#DC7000"/>
<path d="M45.6932 19.8922C45.4994 19.6984 45.1861 19.6984 44.9922 19.8922C44.7984 20.0861 44.7984 20.3994 44.9922 20.5932C46.8444 22.4454 46.8444 25.4592 44.9922 27.3118C44.7984 27.5057 44.7984 27.819 44.9922 28.0128C45.0889 28.1095 45.2158 28.1581 45.3427 28.1581C45.4696 28.1581 45.5965 28.1095 45.6932 28.0128C47.9321 25.7745 47.9321 22.1311 45.6932 19.8922Z" fill="#DC7000"/>
<path d="M43.6056 21.0206C43.4117 20.8268 43.0984 20.8268 42.9046 21.0206C42.7107 21.2144 42.7107 21.5278 42.9046 21.7216C43.5178 22.3349 43.8554 23.1519 43.8554 24.0214C43.8554 24.891 43.5178 25.7075 42.9046 26.3208C42.7107 26.5146 42.7107 26.828 42.9046 27.0218C43.0012 27.1185 43.1282 27.1671 43.2551 27.1671C43.382 27.1671 43.5089 27.1185 43.6056 27.0218C44.4062 26.2216 44.847 25.1558 44.847 24.0214C44.847 22.8871 44.4067 21.8208 43.6056 21.0206Z" fill="#DC7000"/>
<path d="M20.0078 20.5932C20.2016 20.3994 20.2016 20.0861 20.0078 19.8922C19.8139 19.6984 19.5006 19.6984 19.3068 19.8922C17.0679 22.1311 17.0679 25.774 19.3068 28.0128C19.4034 28.1095 19.5304 28.1581 19.6573 28.1581C19.7842 28.1581 19.9111 28.1095 20.0078 28.0128C20.2016 27.819 20.2016 27.5057 20.0078 27.3118C18.1551 25.4597 18.1551 22.4459 20.0078 20.5932Z" fill="#DC7000"/>
<path d="M22.0954 20.8838C21.9016 20.6899 21.5883 20.6899 21.3944 20.8838C20.5938 21.6839 20.153 22.7498 20.153 23.8841C20.153 25.0184 20.5938 26.0843 21.3944 26.885C21.4911 26.9816 21.618 27.0302 21.7449 27.0302C21.8719 27.0302 21.9988 26.9816 22.0954 26.885C22.2893 26.6911 22.2893 26.3778 22.0954 26.184C21.4822 25.5707 21.1446 24.7537 21.1446 23.8841C21.1446 23.0145 21.4817 22.198 22.0954 21.5848C22.2888 21.3914 22.2888 21.0776 22.0954 20.8838Z" fill="#DC7000"/>
</g>
<defs>
<clipPath id="clip0_4_13">
<rect width="29.7458" height="29.7458" fill="white" transform="translate(17.6271 17.6271)"/>
</clipPath>
</defs>
</svg>
