<svg width="65" height="65" viewBox="0 0 65 65" fill="none" xmlns="http://www.w3.org/2000/svg">
<circle cx="32.5" cy="32.5" r="32.5" fill="white"/>
<g clip-path="url(#clip0_7_4)">
<path d="M45.7203 18.1779H20.3813C18.2527 18.1803 16.5278 19.9053 16.5254 22.0338V44.0677C16.5278 46.1963 18.2527 47.9213 20.3813 47.9237H45.7203C47.8489 47.9213 49.5738 46.1963 49.5762 44.0677V22.0338C49.5738 19.9053 47.8489 18.1803 45.7203 18.1779ZM48.4745 44.0677C48.4727 45.5881 47.2407 46.8202 45.7203 46.822H20.3813C18.8609 46.8202 17.6289 45.5881 17.6271 44.0677V22.0338C17.6289 20.5135 18.8609 19.2814 20.3813 19.2796H45.7203C47.2407 19.2814 48.4727 20.5135 48.4745 22.0338V44.0677Z" fill="#DC7000"/>
<path d="M45.7203 22.5847H20.3813C19.4687 22.5847 18.7288 23.3246 18.7288 24.2373V44.0678C18.7288 44.9804 19.4687 45.7203 20.3813 45.7203H45.7203C46.633 45.7203 47.3729 44.9804 47.3729 44.0678V24.2373C47.3729 23.3246 46.633 22.5847 45.7203 22.5847ZM33.0508 33.5268L27.0515 30.2966L33.0508 27.0664L39.0501 30.2966L33.0508 33.5268ZM39.661 31.2187V37.6779L33.6017 40.9423V34.483L39.661 31.2187ZM32.5 34.483V40.9423L26.4407 37.6779V31.2187L32.5 34.483ZM19.8305 24.2373C19.8305 23.933 20.0771 23.6864 20.3813 23.6864H32.5V26.1101L25.6287 29.8118C25.6215 29.8157 25.6133 29.8173 25.6061 29.8218C25.4395 29.9218 25.338 30.1023 25.339 30.2966V34.9138L19.8305 37.668V24.2373ZM46.2712 44.0678C46.2712 44.372 46.0245 44.6186 45.7203 44.6186H20.3813C20.0771 44.6186 19.8305 44.372 19.8305 44.0678V38.8997L25.339 36.1455V38.0084C25.3391 38.211 25.4503 38.3972 25.6287 38.4932L32.7897 42.3491C32.9527 42.4369 33.1489 42.4369 33.3119 42.3491L40.4729 38.4932C40.6513 38.3972 40.7626 38.211 40.7627 38.0084V36.1455L46.2712 38.8997V44.0678ZM46.2712 37.668L40.7627 34.9138V30.2966C40.7626 30.1028 40.6607 29.9234 40.4944 29.824C40.4873 29.8195 40.479 29.8179 40.4718 29.814L33.6017 26.1101V23.6864H45.7203C46.0245 23.6864 46.2712 23.933 46.2712 24.2373V37.668Z" fill="#DC7000"/>
<path d="M19.8304 21.483C20.1347 21.483 20.3813 21.2364 20.3813 20.9322C20.3813 20.628 20.1347 20.3813 19.8304 20.3813C19.5262 20.3813 19.2796 20.628 19.2796 20.9322C19.2796 21.2364 19.5262 21.483 19.8304 21.483Z" fill="#DC7000"/>
<path d="M22.0338 21.483C22.338 21.483 22.5847 21.2364 22.5847 20.9322C22.5847 20.628 22.338 20.3813 22.0338 20.3813C21.7296 20.3813 21.483 20.628 21.483 20.9322C21.483 21.2364 21.7296 21.483 22.0338 21.483Z" fill="#DC7000"/>
<path d="M24.2372 21.483C24.5415 21.483 24.7881 21.2364 24.7881 20.9322C24.7881 20.628 24.5415 20.3813 24.2372 20.3813C23.933 20.3813 23.6864 20.628 23.6864 20.9322C23.6864 21.2364 23.933 21.483 24.2372 21.483Z" fill="#DC7000"/>
<path d="M38.0085 21.483H45.7203C46.0245 21.483 46.2712 21.2364 46.2712 20.9322C46.2712 20.628 46.0245 20.3813 45.7203 20.3813H38.0085C37.7042 20.3813 37.4576 20.628 37.4576 20.9322C37.4576 21.2364 37.7042 21.483 38.0085 21.483Z" fill="#DC7000"/>
</g>
<defs>
<clipPath id="clip0_7_4">
<rect width="33.0508" height="33.0508" fill="white" transform="translate(16.5254 16.5254)"/>
</clipPath>
</defs>
</svg>
