<svg width="55" height="56" viewBox="0 0 55 56" fill="none" xmlns="http://www.w3.org/2000/svg">
<rect y="0.5" width="55" height="55" rx="27.5" fill="#FFECEC"/>
<path fill-rule="evenodd" clip-rule="evenodd" d="M27.5001 26.8001C28.4549 26.8001 29.3706 26.4208 30.0457 25.7457C30.7208 25.0706 31.1001 24.1549 31.1001 23.2001C31.1001 22.2453 30.7208 21.3296 30.0457 20.6545C29.3706 19.9794 28.4549 19.6001 27.5001 19.6001C26.5453 19.6001 25.6296 19.9794 24.9545 20.6545C24.2794 21.3296 23.9001 22.2453 23.9001 23.2001C23.9001 24.1549 24.2794 25.0706 24.9545 25.7457C25.6296 26.4208 26.5453 26.8001 27.5001 26.8001ZM22.3988 37.6001C20.577 37.6001 19.0423 36.0687 19.7395 34.3856V34.3856C20.1616 33.3664 20.7804 32.4404 21.5604 31.6604C22.3404 30.8804 23.2664 30.2616 24.2856 29.8395C25.3047 29.4174 26.397 29.2001 27.5001 29.2001C28.6032 29.2001 29.6955 29.4174 30.7146 29.8395C31.7338 30.2616 32.6598 30.8804 33.4398 31.6604C34.2198 32.4404 34.8385 33.3664 35.2607 34.3856V34.3856C35.9579 36.0687 34.4232 37.6001 32.6014 37.6001H22.3988Z" fill="#DC7000"/>
</svg>
