<svg width="21" height="21" viewBox="0 0 21 21" fill="none" xmlns="http://www.w3.org/2000/svg">
<g clip-path="url(#clip0_0_236)">
<path d="M1.26222 13.974C1.34814 13.9879 1.4351 13.9944 1.52211 13.9933L16.3372 13.9933L16.0141 14.1435C15.6984 14.293 15.4111 14.4964 15.1652 14.7445L11.0107 18.899C10.4635 19.4214 10.3716 20.2616 10.7928 20.8899C11.2831 21.5594 12.2232 21.7048 12.8928 21.2145C12.9469 21.1749 12.9983 21.1317 13.0466 21.0852L20.5593 13.5725C21.1464 12.9861 21.147 12.0347 20.5605 11.4476C20.5601 11.4472 20.5597 11.4468 20.5593 11.4464L13.0466 3.93375C12.459 3.34781 11.5077 3.34912 10.9217 3.93671C10.8756 3.98296 10.8325 4.03217 10.7928 4.08401C10.3716 4.7123 10.4635 5.55255 11.0107 6.07487L15.1577 10.2369C15.3781 10.4576 15.6316 10.6426 15.909 10.7853L16.3597 10.9882L1.6048 10.9882C0.837233 10.9597 0.163813 11.4958 0.0196152 12.2503C-0.113218 13.0694 0.443098 13.8411 1.26222 13.974Z" fill="#DC7000"/>
</g>
<defs>
<clipPath id="clip0_0_236">
<rect width="21" height="21" fill="white" transform="matrix(-1 0 0 -1 21 21)"/>
</clipPath>
</defs>
</svg>
