<svg width="12" height="12" viewBox="0 0 12 12" fill="none" xmlns="http://www.w3.org/2000/svg">
<g id="arrow 6" clip-path="url(#clip0_1_502)">
<g id="Group">
<g id="Group_2">
<path id="Vector" d="M0.721267 7.98509C0.770368 7.99306 0.820059 7.99673 0.869777 7.99609L9.33554 7.99609L9.15094 8.08195C8.9705 8.16735 8.80635 8.28359 8.66583 8.42539L6.29182 10.7994C5.97916 11.0979 5.92662 11.578 6.16733 11.937C6.44747 12.3196 6.98471 12.4027 7.36732 12.1225C7.39823 12.0999 7.42761 12.0752 7.45522 12.0487L11.7482 7.75568C12.0837 7.42056 12.084 6.87694 11.7489 6.54145C11.7486 6.54123 11.7484 6.54099 11.7482 6.54077L7.45522 2.24781C7.11945 1.91298 6.57583 1.91373 6.24098 2.2495C6.21463 2.27592 6.19002 2.30404 6.16733 2.33367C5.92662 2.69269 5.97916 3.17283 6.29182 3.4713L8.66154 5.84961C8.78751 5.97571 8.93235 6.08145 9.09084 6.16299L9.34841 6.2789L0.917026 6.2789C0.478418 6.26262 0.0936079 6.569 0.0112095 7.00012C-0.0646954 7.46819 0.2532 7.90916 0.721267 7.98509Z" fill="white"/>
</g>
</g>
</g>
<defs>
<clipPath id="clip0_1_502">
<rect width="12" height="12" fill="white" transform="matrix(-1 0 0 -1 12 12)"/>
</clipPath>
</defs>
</svg>
