<svg width="12" height="12" viewBox="0 0 12 12" fill="none" xmlns="http://www.w3.org/2000/svg">
<g id="arrow 7" clip-path="url(#clip0_1_506)">
<g id="Group">
<g id="Group_2">
<path id="Vector" d="M11.2787 7.98509C11.2296 7.99306 11.1799 7.99673 11.1302 7.99609L2.66446 7.99609L2.84906 8.08195C3.0295 8.16735 3.19365 8.28359 3.33417 8.42539L5.70818 10.7994C6.02084 11.0979 6.07338 11.578 5.83267 11.937C5.55253 12.3196 5.01529 12.4027 4.63268 12.1225C4.60177 12.0999 4.57239 12.0752 4.54478 12.0487L0.251816 7.75568C-0.0836792 7.42056 -0.0839744 6.87694 0.251145 6.54145C0.25136 6.54123 0.251602 6.54099 0.251816 6.54077L4.54478 2.24781C4.88055 1.91298 5.42417 1.91373 5.75902 2.2495C5.78537 2.27592 5.80998 2.30404 5.83267 2.33367C6.07338 2.69269 6.02084 3.17283 5.70818 3.4713L3.33846 5.84961C3.21249 5.97571 3.06765 6.08145 2.90916 6.16299L2.65159 6.2789L11.083 6.2789C11.5216 6.26262 11.9064 6.569 11.9888 7.00012C12.0647 7.46819 11.7468 7.90916 11.2787 7.98509Z" fill="white"/>
</g>
</g>
</g>
<defs>
<clipPath id="clip0_1_506">
<rect width="12" height="12" fill="white" transform="matrix(1 0 0 -1 0 12)"/>
</clipPath>
</defs>
</svg>
