<svg width="60" height="60" viewBox="0 0 60 60" fill="none" xmlns="http://www.w3.org/2000/svg">
<circle cx="30" cy="30" r="29" stroke="#DC7000" stroke-width="2"/>
<path d="M21.25 31.2501H36.075L31.5375 36.7001C31.3253 36.9554 31.2232 37.2845 31.2537 37.615C31.2842 37.9456 31.4447 38.2505 31.7 38.4626C31.9553 38.6748 32.2844 38.7769 32.6149 38.7464C32.9454 38.7159 33.2503 38.5554 33.4625 38.3001L39.7125 30.8001C39.7545 30.7405 39.7922 30.6778 39.825 30.6126C39.825 30.5501 39.825 30.5126 39.9125 30.4501C39.9692 30.3068 39.9988 30.1543 40 30.0001C39.9988 29.846 39.9692 29.6935 39.9125 29.5501C39.9125 29.4876 39.9125 29.4501 39.825 29.3876C39.7922 29.3225 39.7545 29.2598 39.7125 29.2001L33.4625 21.7001C33.345 21.559 33.1978 21.4456 33.0314 21.3678C32.8651 21.29 32.6836 21.2498 32.5 21.2501C32.2079 21.2496 31.9249 21.3513 31.7 21.5376C31.5734 21.6426 31.4688 21.7715 31.3921 21.9169C31.3154 22.0623 31.2682 22.2215 31.2531 22.3852C31.238 22.5489 31.2553 22.714 31.3041 22.871C31.3529 23.028 31.4322 23.1738 31.5375 23.3001L36.075 28.7501H21.25C20.9185 28.7501 20.6005 28.8818 20.3661 29.1163C20.1317 29.3507 20 29.6686 20 30.0001C20 30.3317 20.1317 30.6496 20.3661 30.884C20.6005 31.1184 20.9185 31.2501 21.25 31.2501Z" fill="#DC7000"/>
</svg>
